HIERARCHY
ROOT Hips
{
 OFFSET 0.000000 0.000000 0.000000
 CHANNELS 6 Xposition Yposition Zposition Yrotation Xrotation Zrotation
 JOINT Chest
 {
  OFFSET 0.000000 9.585900 0.002600
  CHANNELS 3 Yrotation Xrotation Zrotation
  JOINT Chest2
  {
   OFFSET 0.000000 9.601200 -0.005300
   CHANNELS 3 Yrotation Xrotation Zrotation
   JOINT Chest3
   {
    OFFSET 0.000000 9.561800 0.000000
    CHANNELS 3 Yrotation Xrotation Zrotation
    JOINT Chest4
    {
     OFFSET 0.000000 9.552100 0.000000
     CHANNELS 3 Yrotation Xrotation Zrotation
     JOINT Neck
     {
      OFFSET 0.000000 14.453000 0.000000
      CHANNELS 3 Yrotation Xrotation Zrotation
      JOINT Head
      {
       OFFSET 0.000000 8.936500 -0.011300
       CHANNELS 3 Yrotation Xrotation Zrotation
       End Site
       {
        OFFSET 0.000000 17.073600 -0.006000
       }
      }
     }
     JOINT RightCollar
     {
      OFFSET -2.921100 9.558500 0.000000
      CHANNELS 3 Yrotation Xrotation Zrotation
      JOINT RightShoulder
      {
       OFFSET -13.519700 0.000000 0.000000
       CHANNELS 3 Yrotation Xrotation Zrotation
       JOINT RightElbow
       {
        OFFSET 0.000000 -29.696600 0.000000
        CHANNELS 3 Yrotation Xrotation Zrotation
        JOINT RightWrist
        {
         OFFSET 0.000000 -24.004700 0.000000
         CHANNELS 3 Yrotation Xrotation Zrotation
         End Site
         {
          OFFSET 0.000000 -17.728500 0.000000
         }
        }
       }
      }
     }
     JOINT LeftCollar
     {
      OFFSET 2.921100 9.558500 0.000000
      CHANNELS 3 Yrotation Xrotation Zrotation
      JOINT LeftShoulder
      {
       OFFSET 13.519700 0.000000 0.000000
       CHANNELS 3 Yrotation Xrotation Zrotation
       JOINT LeftElbow
       {
        OFFSET 0.000000 -29.696600 0.000000
        CHANNELS 3 Yrotation Xrotation Zrotation
        JOINT LeftWrist
        {
         OFFSET 0.000000 -24.004700 0.000000
         CHANNELS 3 Yrotation Xrotation Zrotation
         End Site
         {
          OFFSET 0.000000 -17.728500 0.000000
         }
        }
       }
      }
     }
    }
   }
  }
 }
 JOINT RightHip
 {
  OFFSET -7.771700 -0.012900 -0.001300
  CHANNELS 3 Yrotation Xrotation Zrotation
  JOINT RightKnee
  {
   OFFSET 0.000000 -40.869800 0.001200
   CHANNELS 3 Yrotation Xrotation Zrotation
   JOINT RightAnkle
   {
    OFFSET 0.000000 -39.717900 0.002100
    CHANNELS 3 Yrotation Xrotation Zrotation
    JOINT RightToe
    {
     OFFSET 0.000000 -4.965400 11.033500
     CHANNELS 3 Yrotation Xrotation Zrotation
     End Site
     {
      OFFSET 0.000000 -1.423100 5.872300
     }
    }
   }
  }
 }
 JOINT LeftHip
 {
  OFFSET 7.771700 -0.012900 -0.001300
  CHANNELS 3 Yrotation Xrotation Zrotation
  JOINT LeftKnee
  {
   OFFSET 0.000000 -40.869800 0.001200
   CHANNELS 3 Yrotation Xrotation Zrotation
   JOINT LeftAnkle
   {
    OFFSET 0.000000 -39.717900 0.002100
    CHANNELS 3 Yrotation Xrotation Zrotation
    JOINT LeftToe
    {
     OFFSET 0.000000 -4.965400 11.033500
     CHANNELS 3 Yrotation Xrotation Zrotation
     End Site
     {
      OFFSET 0.000000 -1.423100 5.872300
     }
    }
   }
  }
 }
}
MOTION
Frames: 12
Frame Time: 0.008333
-8.245460 55.253339 -25.971403 179.776363 -17.608439 -1.435781 1.530472 15.082107 0.356018 0.139170 1.404356 0.027153 0.250444 2.376561 0.060372 1.485126 13.540935 0.492169 0.571618 12.398581 -4.989919 1.758300 -12.615823 -5.475633 -0.138246 1.050115 2.873357 1.559079 -6.878699 -8.029838 -73.403324 -55.749490 106.444575 -14.281246 10.767918 -4.862224 -5.544197 -0.821605 2.734589 2.416372 -9.826028 6.285316 54.570482 -48.165427 -97.731018 9.858356 -3.390368 10.549718 -0.615292 -57.242955 12.530850 -105.182151 88.324704 -109.943867 -10.372815 -22.433677 14.871919 0.016288 -0.051415 -0.051514 10.600895 -54.017608 -6.052013 112.519882 77.407766 110.739356 -6.858257 -23.534759 0.800005 0.100111 0.235701 0.051971
-8.245807 55.256462 -25.969094 179.766890 -17.619588 -1.442601 1.531559 15.084981 0.356115 0.145684 1.407646 0.030808 0.245794 2.372744 0.057967 1.489481 13.544399 0.494657 0.571893 12.398898 -4.986326 1.720100 -12.632058 -5.443656 -0.166119 1.081976 2.860259 1.544360 -6.840804 -7.952528 -73.431927 -55.762923 106.502865 -14.283586 10.743525 -4.862395 -5.529273 -0.807138 2.756353 2.374956 -9.782970 6.278673 54.547487 -48.184764 -97.773837 9.835943 -3.399428 10.589317 -0.631799 -57.226787 12.548537 -104.821023 88.325477 -109.591773 -10.328906 -22.420807 14.878153 0.017315 -0.059287 -0.052288 10.601693 -54.009232 -6.040872 112.503415 77.404412 110.729131 -6.855741 -23.529224 0.798893 0.097512 0.229620 0.048437
-8.244590 55.259477 -25.969483 179.756921 -17.639359 -1.459736 1.541522 15.093926 0.368424 0.148267 1.412561 0.034608 0.239120 2.371038 0.058957 1.494343 13.545565 0.493318 0.553897 12.388195 -4.973596 1.699289 -12.631202 -5.414106 -0.179594 1.100552 2.855344 1.515582 -6.805140 -7.897404 -73.447129 -55.788136 106.557854 -14.300375 10.724850 -4.862227 -5.516905 -0.790373 2.780673 2.337691 -9.742732 6.270098 54.546458 -48.209248 -97.817640 9.816150 -3.308748 10.583280 -0.659652 -57.198830 12.576666 -104.450423 88.327830 -109.232369 -10.238745 -22.417653 14.869560 0.038969 -0.064950 -0.049595 10.580418 -53.993986 -6.002759 112.513496 77.403984 110.747700 -6.858818 -23.530904 0.790881 0.105102 0.226763 0.050225
-8.241660 55.262511 -25.973018 179.730985 -17.671087 -1.482778 1.558300 15.114084 0.394569 0.147067 1.411774 0.034972 0.249490 2.376852 0.060306 1.485261 13.547183 0.490826 0.523261 12.375500 -4.938941 1.706348 -12.626291 -5.410774 -0.183212 1.116556 2.846704 1.498401 -6.781978 -7.857146 -73.456838 -55.796165 106.595769 -14.334453 10.696091 -4.865507 -5.497953 -0.781328 2.790987 2.314143 -9.711370 6.266805 54.517769 -48.213433 -97.842377 9.808929 -3.241835 10.575962 -0.687429 -57.158640 12.627423 -104.047995 88.327017 -108.833894 -10.181906 -22.411786 14.862913 -0.004504 -0.071045 -0.046990 10.560906 -53.971274 -5.948763 112.525613 77.397396 110.767782 -6.834656 -23.500089 0.785056 0.084587 0.191252 0.040411
-8.242484 55.263668 -25.974219 179.725559 -17.679471 -1.489627 1.561449 15.117510 0.403017 0.146233 1.410552 0.035402 0.252310 2.380667 0.059392 1.473021 13.538023 0.494054 0.505254 12.374792 -4.914774 1.696657 -12.620908 -5.396636 -0.208709 1.154399 2.831423 1.485504 -6.759555 -7.811731 -73.457019 -55.781566 106.629080 -14.347879 10.661469 -4.858094 -5.483257 -0.765011 2.797080 2.309434 -9.704613 6.255028 54.445293 -48.185260 -97.834783 9.795337 -3.238937 10.584538 -0.692353 -57.150452 12.639776 -103.963447 88.323227 -108.738443 -10.227870 -22.389420 14.887041 0.016645 -0.073246 -0.046017 10.552494 -53.966964 -5.934057 112.540617 77.391144 110.785873 -6.836164 -23.498627 0.781039 0.085188 0.186201 0.040629
-8.243850 55.264008 -25.975910 179.727908 -17.683438 -1.495068 1.557027 15.117572 0.407644 0.145368 1.409157 0.035954 0.250517 2.378533 0.060702 1.454945 13.523115 0.502594 0.500303 12.389140 -4.905208 1.677081 -12.616008 -5.374467 -0.225934 1.203544 2.808646 1.458849 -6.725834 -7.760855 -73.432022 -55.733842 106.639697 -14.262008 10.658997 -4.820288 -5.463329 -0.726506 2.831773 2.295738 -9.674814 6.216345 54.429159 -48.155627 -97.877111 9.801460 -3.235767 10.578820 -0.695342 -57.143845 12.637644 -103.966586 88.325683 -108.740759 -10.226874 -22.384477 14.898677 0.029535 -0.073661 -0.044492 10.541680 -53.968017 -5.931850 112.556515 77.378471 110.804177 -6.829304 -23.496846 0.778549 0.077965 0.180438 0.036078
-8.244064 55.263846 -25.978580 179.724552 -17.687386 -1.504785 1.558466 15.117755 0.418756 0.146526 1.408975 0.035741 0.243142 2.368918 0.063527 1.448541 13.520449 0.507309 0.486543 12.398577 -4.891098 1.656359 -12.610665 -5.351963 -0.247443 1.240415 2.793361 1.445023 -6.700159 -7.723389 -73.417929 -55.728251 106.658805 -14.271218 10.635779 -4.808209 -5.449665 -0.706026 2.830597 2.241128 -9.608942 6.230728 54.469898 -48.133950 -97.955061 9.825901 -3.227840 10.569997 -0.703317 -57.137348 12.654282 -103.819018 88.318134 -108.587282 -10.268471 -22.375093 14.916979 0.028215 -0.070097 -0.039609 10.529779 -53.967661 -5.914540 112.581982 77.371594 110.832998 -6.831529 -23.503759 0.777928 0.077901 0.180938 0.033494
-8.244687 55.263033 -25.981335 179.728115 -17.686276 -1.513196 1.548963 15.114957 0.426955 0.145493 1.407672 0.036176 0.239820 2.365262 0.064822 1.451463 13.521564 0.505375 0.463757 12.398698 -4.868556 1.664788 -12.606117 -5.358609 -0.265853 1.268513 2.791399 1.424850 -6.677604 -7.693956 -73.412687 -55.732707 106.686508 -14.287797 10.623671 -4.801749 -5.444377 -0.693885 2.837158 2.221366 -9.590839 6.229445 54.472921 -48.119219 -97.979714 9.845396 -3.220740 10.567360 -0.714498 -57.135788 12.666928 -103.804317 88.316260 -108.570280 -10.320090 -22.366304 14.939503 0.015163 -0.066491 -0.033952 10.516970 -53.971694 -5.904561 112.600414 77.366596 110.853449 -6.830834 -23.508932 0.779144 0.078424 0.183691 0.031282
-8.246227 55.261885 -25.984726 179.726888 -17.684954 -1.513682 1.545200 15.113584 0.428339 0.136173 1.407909 0.040037 0.239849 2.364273 0.064952 1.455741 13.516557 0.501525 0.440033 12.400250 -4.843929 1.634887 -12.604309 -5.327327 -0.317955 1.322219 2.790865 1.465402 -6.700477 -7.684941 -73.415527 -55.740286 106.706948 -14.313276 10.622799 -4.811785 -5.443870 -0.675974 2.854721 2.225557 -9.594141 6.209502 54.443586 -48.099860 -97.980901 9.834071 -3.238351 10.579665 -0.710248 -57.135222 12.650027 -104.040138 88.323506 -108.822254 -10.252700 -22.368582 14.948719 -0.042997 -0.081313 -0.044302 10.510809 -53.977888 -5.909778 112.619947 77.351722 110.872672 -6.815214 -23.506746 0.778497 0.066905 0.177235 0.022910
-8.247831 55.260359 -25.987971 179.724778 -17.679735 -1.512599 1.540592 15.109866 0.428655 0.135542 1.408463 0.040402 0.229154 2.365090 0.069736 1.445073 13.507832 0.504250 0.429985 12.402794 -4.830423 1.608210 -12.606940 -5.299754 -0.321744 1.355167 2.777192 1.475438 -6.705093 -7.674946 -73.397056 -55.718025 106.681419 -14.290879 10.629327 -4.796102 -5.443421 -0.645099 2.876903 2.220589 -9.591180 6.181101 54.367751 -48.055221 -97.976766 9.811318 -3.273511 10.600045 -0.701134 -57.141350 12.645301 -104.061862 88.313005 -108.842562 -10.294043 -22.357238 14.968836 0.006120 -0.073927 -0.030984 10.512142 -53.983869 -5.913310 112.640531 77.347115 110.891794 -6.810015 -23.510931 0.781812 0.063220 0.178714 0.019743
-8.248584 55.258947 -25.991962 179.715863 -17.677755 -1.513627 1.537599 15.115459 0.434510 0.140827 1.403951 0.038157 0.216968 2.366276 0.074189 1.437927 13.503774 0.510442 0.417542 12.399976 -4.820468 1.596233 -12.612200 -5.286679 -0.326389 1.382963 2.762510 1.474115 -6.689828 -7.659910 -73.406479 -55.717679 106.693035 -14.259905 10.636513 -4.765942 -5.431496 -0.631909 2.871956 2.158831 -9.565111 6.188450 54.388280 -48.055488 -98.001775 9.824166 -3.264132 10.602643 -0.690371 -57.145163 12.678267 -103.695097 88.275657 -108.449709 -10.523066 -22.327004 15.011722 -0.000987 -0.057747 -0.013305 10.512798 -53.986633 -5.908010 112.678136 77.342833 110.932744 -6.810524 -23.521146 0.779670 0.066298 0.182732 0.020792
-8.250993 55.256966 -25.994401 179.712390 -17.665429 -1.505542 1.517632 15.107965 0.428343 0.130940 1.409022 0.041271 0.234233 2.361271 0.067930 1.397473 13.507649 0.531294 0.431613 12.391342 -4.831583 1.606063 -12.615990 -5.296351 -0.298339 1.402370 2.732381 1.465228 -6.681676 -7.651521 -73.360199 -55.691953 106.610289 -14.214237 10.633135 -4.709755 -5.396348 -0.627007 2.848555 2.115982 -9.555744 6.195214 54.404557 -48.066554 -98.020152 9.826332 -3.305471 10.627386 -0.672888 -57.158735 12.677042 -103.624225 88.259558 -108.366085 -10.649344 -22.314304 15.035300 0.034768 -0.042503 -0.002570 10.511244 -54.000919 -5.919127 112.686222 77.332231 110.932523 -6.800412 -23.519275 0.780645 0.055531 0.181591 0.015434
